<svg width="250" height="63" viewBox="0 0 250 63" fill="none" xmlns="http://www.w3.org/2000/svg">
<path d="M179.587 41.174C184.02 41.174 187.613 44.7674 187.613 49.2001C187.613 53.6328 184.02 57.2262 179.587 57.2262C175.154 57.2262 171.561 53.6328 171.561 49.2001C171.561 44.7674 175.154 41.174 179.587 41.174Z" fill="#1775F9"/>
<path d="M179.587 5.85907C184.02 5.85907 187.613 9.45248 187.613 13.8852C187.613 18.3179 184.02 21.9113 179.587 21.9113C175.154 21.9113 171.561 18.3179 171.561 13.8852C171.561 9.45248 175.154 5.85907 179.587 5.85907Z" fill="#1775F9"/>
<path fill-rule="evenodd" clip-rule="evenodd" d="M21.831 62.7642H0V0.080262H21.2692C44.6252 0.080262 56.5841 7.62482 56.5841 31.9439C56.5841 56.6644 45.3475 62.7642 21.831 62.7642ZM21.4727 20.8412V42.2441H24.9507C30.1221 42.2441 34.3145 38.0518 34.3145 32.8803V30.205C34.3145 25.0335 30.1221 20.8412 24.9507 20.8412H21.4727Z" fill="#1775F9"/>
<path d="M110.581 62.8445H60.9797V0.080262H110.581V18.9416H85.058L85.0186 22.3333H110.542V40.5833H85.0186L85.058 43.9831H110.581V62.8445Z" fill="#1775F9"/>
<path d="M116.394 62.8445H165.996V43.9831H140.473V40.5833H165.996L165.958 22.3333H140.435L140.473 18.9416H165.996V0.080262H116.394V62.8445Z" fill="#1775F9"/>
<path d="M218.039 0C239.02 0 248.468 5.56534 249.938 21.1087H193.399V0H218.039Z" fill="#1775F9"/>
<path d="M220.688 50.725C238.587 50.725 248.698 43.831 250 29.1348H193.399V62.7642H220.688V50.725Z" fill="#1775F9"/>
</svg>
