<svg width="560" height="100" viewBox="0 0 560 100" fill="none" xmlns="http://www.w3.org/2000/svg">
<path d="M69.8359 12.8594C69.8359 19.8906 74.4297 27.1562 80.8984 29.9219L78.4609 33.3906C73.5156 31.2109 69.5781 26.5938 67.6328 20.9688C65.6875 26.9688 61.7266 32.0781 56.8516 34.4688L54.2734 30.9531C60.6016 28 65.2891 20.0781 65.3359 12.8594V8.40625H55.7266V4.70312H79.3984V8.40625H69.8359V12.8594ZM89.1484 0.484375V42.4844H84.6953V0.484375H89.1484ZM129.414 2.59375V5.78125C129.414 9.08594 129.414 12.8359 128.336 17.9219H134.289V21.5781H95.8516V17.9219H123.836C124.961 13.0234 125.008 9.4375 125.008 6.25H100.68V2.59375H129.414ZM129.461 26.9219V41.9688H100.539V26.9219H129.461ZM104.898 30.4375V38.3594H125.055V30.4375H104.898ZM181.773 0.484375V16.75H188.523V20.5H181.773V42.4844H177.32V0.484375H181.773ZM155.055 4V14.7812H166.164V4H170.57V32.5H150.648V4H155.055ZM155.055 28.8438H166.164V18.2969H155.055V28.8438ZM228.977 33.7188V37.4688H190.539V33.7188H207.461V26.3594H195.227V13H219.883V7.09375H195.133V3.4375H224.289V16.5625H199.633V22.7031H225.273V26.3594H211.867V33.7188H228.977ZM444.883 3.01562C453.695 3.01562 460.398 7.65625 460.398 14.7344C460.398 21.8125 453.695 26.5 444.883 26.4531C436.07 26.5 429.414 21.8125 429.414 14.7344C429.414 7.65625 436.07 3.01562 444.883 3.01562ZM444.883 6.625C438.461 6.57812 433.633 9.85938 433.68 14.7344C433.633 19.6562 438.461 22.7969 444.883 22.7969C451.305 22.7969 456.086 19.6562 456.086 14.7344C456.086 9.85938 451.305 6.57812 444.883 6.625ZM464.195 33.3438V37.0469H425.758V33.3438H464.195ZM505.68 33.7188V37.4688H467.242V33.7188H484.164V26.3594H471.93V13H496.586V7.09375H471.836V3.4375H500.992V16.5625H476.336V22.7031H501.977V26.3594H488.57V33.7188H505.68ZM35.1953 57.4844V88.6562H30.7422V77.0781H24.1797V73.3281H30.7422V68.9219H24.1797V65.2656H30.7422V57.4844H35.1953ZM23.7109 60.7656V64.375H19.6797V78.4375C21.4609 78.2969 23.1719 78.1562 24.8359 77.9688L25.0234 81.25C16.9609 82.5156 7.53906 82.6562 0.789062 82.7031L0.226562 78.9531C1.79688 78.9531 3.53125 78.9531 5.33594 78.9062V64.375H1.39844V60.7656H23.7109ZM36.2734 94.9844V98.5938H7.82031V86.125H12.3203V94.9844H36.2734ZM9.64844 78.8594C11.5469 78.8125 13.4688 78.7656 15.4141 78.6719V64.375H9.64844V78.8594ZM76.5391 57.4844V99.5781H72.0859V57.4844H76.5391ZM63.6953 61.2812V76.6094H48.6016V85.7969C55.3984 85.7734 61.3516 85.4688 68.3828 84.2969L68.8047 87.9531C61.3516 89.2188 55.0234 89.5 47.6172 89.5H44.0547V73.0469H59.1484V64.8906H44.0078V61.2812H63.6953ZM115.867 57.4844V74.5H122.617V78.2031H115.867V99.4844H111.461V57.4844H115.867ZM107.805 64.0469V67.7031H82.9141V64.0469H93.2734V58.0469H97.7266V64.0469H107.805ZM95.5234 70.7969C101.523 70.7969 105.93 74.8281 105.977 80.5469C105.93 86.3125 101.523 90.2969 95.5234 90.3438C89.4766 90.2969 85.0703 86.3125 85.0703 80.5469C85.0703 74.8281 89.4766 70.7969 95.5234 70.7969ZM95.5234 74.4531C91.9609 74.4531 89.2891 76.9375 89.3359 80.5469C89.2891 84.2031 91.9609 86.6406 95.5234 86.5938C99.0859 86.6406 101.711 84.2031 101.711 80.5469C101.711 76.9375 99.0859 74.4531 95.5234 74.4531ZM160.727 57.4844V99.4844H156.508V57.4844H160.727ZM151.867 58.5625V97.4219H147.648V77.9219H139.445C136.938 82.7969 132.953 87.0625 127.023 90.5312L124.492 87.3438C133.398 82.0469 137.688 74.9922 138.461 66.3438H126.461V62.6875H142.867C142.844 66.7891 142.281 70.7031 140.992 74.3594H147.648V58.5625H151.867ZM212.852 57.4844V82.2812H208.398V76.0469H199.258V79.4688H179.758V60.625H199.258V64.0938H208.398V57.4844H212.852ZM184.164 64.1875V75.9062H194.898V64.1875H184.164ZM198.789 83.4531C207.602 83.4531 212.992 86.3594 212.992 91.4688C212.992 96.5312 207.602 99.4375 198.789 99.3906C189.977 99.4375 184.539 96.5312 184.586 91.4688C184.539 86.3594 189.977 83.4531 198.789 83.4531ZM198.789 86.875C192.648 86.9219 188.992 88.5156 188.992 91.4688C188.992 94.2812 192.648 95.9688 198.789 95.9688C204.93 95.9688 208.586 94.2812 208.586 91.4688C208.586 88.5156 204.93 86.9219 198.789 86.875ZM199.258 72.4375H208.398V67.6562H199.258V72.4375ZM252.32 57.4844V68.3594H258.414V72.1562H252.32V82.7969H247.867V57.4844H252.32ZM252.32 85V98.9688H225.508V85H252.32ZM229.867 88.5156V95.3594H247.914V88.5156H229.867ZM244.398 61.75V65.3125H219.367V61.75H229.68V57.1562H234.133V61.75H244.398ZM231.883 67.1406C237.93 67.1406 242.055 70.1406 242.055 74.6406C242.055 79.1875 237.93 82.1406 231.883 82.1875C225.742 82.1406 221.664 79.1875 221.664 74.6406C221.664 70.1406 225.742 67.1406 231.883 67.1406ZM231.883 70.5625C228.32 70.5156 225.93 72.1094 225.977 74.6406C225.93 77.2656 228.32 78.8125 231.883 78.8125C235.445 78.8125 237.836 77.2656 237.883 74.6406C237.836 72.1094 235.445 70.5156 231.883 70.5625ZM279.93 58.1875C289.398 58.1875 294.93 60.7188 294.93 65.4062C294.93 70.0938 289.398 72.6719 279.93 72.6719C270.461 72.6719 264.93 70.0938 264.93 65.4062C264.93 60.7188 270.461 58.1875 279.93 58.1875ZM279.93 61.4688C273.227 61.4688 269.523 62.9219 269.57 65.4062C269.523 67.9844 273.227 69.3438 279.93 69.3438C286.633 69.3438 290.336 67.9844 290.336 65.4062C290.336 62.9219 286.633 61.4688 279.93 61.4688ZM299.102 75.25V78.8125H260.805V75.25H299.102ZM294.273 82.0469V91.8906H269.805V95.6406H295.445V99.0625H265.445V88.6562H289.867V85.375H265.398V82.0469H294.273ZM337.398 60.6719V63.0156C337.352 65.8281 337.352 70 336.32 75.4375L331.914 75.0156C332.828 70.3516 332.969 66.9766 333.039 64.3281H316.211V60.6719H337.398ZM326.664 70.0938V78.7656C331.164 78.625 335.805 78.2969 340.023 77.6875L340.305 80.9219C331.539 82.4688 321.508 82.6094 314.102 82.6562L313.68 79.0469C316.258 79.0234 319.188 79 322.258 78.9062V70.0938H326.664ZM347.242 57.4844V70.8438H353.008V74.5938H347.242V89.0312H342.695V57.4844H347.242ZM348.602 94.9844V98.5938H320.055V86.1719H324.508V94.9844H348.602ZM390.367 57.4844V99.5781H385.914V57.4844H390.367ZM377.523 61.2812V76.6094H362.43V85.7969C369.227 85.7734 375.18 85.4688 382.211 84.2969L382.633 87.9531C375.18 89.2188 368.852 89.5 361.445 89.5H357.883V73.0469H372.977V64.8906H357.836V61.2812H377.523ZM417.742 64.4219V68.0312H396.883V64.4219H405.133V58.7031H409.539V64.4219H417.742ZM407.336 70.5625C412.68 70.5625 416.43 74.5469 416.477 80.2188C416.43 85.9375 412.68 89.9688 407.336 89.9688C402.086 89.9688 398.195 85.9375 398.242 80.2188C398.195 74.5469 402.086 70.5625 407.336 70.5625ZM407.336 74.2656C404.289 74.2656 402.18 76.75 402.18 80.2188C402.18 83.7812 404.289 86.1719 407.336 86.1719C410.336 86.1719 412.539 83.7812 412.539 80.2188C412.539 76.75 410.336 74.2656 407.336 74.2656ZM432.93 57.4844V99.4844H428.711V78.625H423.883V97.5156H419.664V58.4219H423.883V74.9688H428.711V57.4844H432.93ZM476.898 90.5781V94.2812H438.461V90.5781H455.383V81.9531H442.867V60.3438H447.32V67.5625H467.945V60.3438H472.352V81.9531H459.789V90.5781H476.898ZM447.32 78.3438H467.945V71.1719H447.32V78.3438ZM492.742 68.9688C492.742 75.6719 495.555 82.8438 501.18 86.2656L498.695 89.6875C494.758 87.3203 492.086 83.125 490.68 78.25C489.109 83.5938 486.227 88.1406 482.148 90.625L479.383 87.2969C485.336 83.7344 488.43 76.3281 488.43 69.1562V61.3281H492.742V68.9688ZM516.086 57.4844V99.4844H511.82V57.4844H516.086ZM507.367 58.2812V97.4219H503.148V75.9531H496.633V72.25H503.148V58.2812H507.367ZM559.867 90.5312V94.2344H521.43V90.5312H530.617V79.5625C527.172 77.6641 525.086 74.6406 525.086 70.8906C525.086 64.2812 531.555 59.9219 540.555 59.9219C549.602 59.9219 556.07 64.2812 556.07 70.8906C556.07 74.5938 554.055 77.5703 550.68 79.4688V90.5312H559.867ZM540.555 63.4844C533.945 63.4844 529.398 66.3438 529.398 70.8906C529.398 75.3906 533.945 78.3438 540.555 78.3438C547.117 78.3438 551.758 75.3906 551.758 70.8906C551.758 66.3438 547.117 63.4844 540.555 63.4844ZM535.023 90.5312H546.18V81.1562C544.469 81.6016 542.57 81.8125 540.555 81.8125C538.586 81.8125 536.711 81.6016 535.023 81.2031V90.5312Z" fill="black"/>
<path d="M268.698 40.612H255.642V3.124H268.362C282.33 3.124 289.482 7.636 289.482 22.18C289.482 36.964 282.762 40.612 268.698 40.612ZM264.762 19.492L263.898 20.788C268.506 22.276 274.842 22.948 279.882 22.948V21.508C274.842 21.508 269.034 20.692 264.762 19.492ZM321.775 40.66H292.111V3.124H321.775V14.404H306.511V16.084H321.775V27.7H306.511V29.38H321.775V40.66ZM354.915 40.66H325.251V3.124H354.915V14.404H339.651V16.084H354.915V27.7H339.651V29.38H354.915V40.66ZM371.304 20.452H361.8C359.64 20.452 358.392 19.588 358.392 17.38V7.924H371.304V20.452ZM371.304 40.612H361.8C359.64 40.612 358.392 39.748 358.392 37.54V28.084H371.304V40.612ZM389.487 3.124C403.215 3.124 408.687 7.108 408.687 18.532C408.687 28.708 402.495 34.036 391.071 33.46V40.66H374.751V3.124H389.487ZM386.127 17.956C388.815 19.684 394.911 20.596 398.511 20.596V19.252C394.911 19.252 389.343 18.196 386.991 16.756L386.127 17.956Z" fill="#1775F9"/>
</svg>
