<svg width="676" height="135" viewBox="0 0 676 135" fill="none" xmlns="http://www.w3.org/2000/svg">
<path d="M46.625 0.9375V42.875H38.6875V22.375H28.1875V33.875H1.125V4.625H9.125V13.375H20.3125V4.625H28.1875V16H38.6875V0.9375H46.625ZM47.8125 50.375V56.75H8.75V38.6875H16.8125V50.375H47.8125ZM9.125 27.625H20.3125V19.4375H9.125V27.625ZM101.938 0.875V57.75H94V29.25H82.6875V22.75H94V0.875H101.938ZM83 6.8125C83 24 77.4375 38 57.5625 47.875L53.4375 41.625C67.8125 34.5312 73.75 25.5 75 13.0625H56.125V6.8125H83ZM161.312 29.125V35.4375H109.25V29.125H131.312V25.6875H115.75V10.75H147V7.8125H115.625V1.6875H155V16.4375H123.688V19.625H156.062V25.6875H139.25V29.125H161.312ZM123.75 37.5V41.25H147.312V37.5H155.188V57.125H115.812V37.5H123.75ZM123.75 51H147.312V47.1875H123.75V51ZM194 4.8125V11.1875H176V28.3125C184.25 28.25 190.094 27.9062 196.625 26.6875L197.375 33.0625C189.812 34.375 183 34.75 172.625 34.75H168.062V4.8125H194ZM212.562 0.9375V42.3125H204.625V22.0625H190.688V15.75H204.625V0.9375H212.562ZM213.938 50.5V56.875H174.75V38.875H182.75V50.5H213.938ZM282.625 0.875V34.1875H274.688V26.9375H264.062V31.0625H237.062V5.0625H264.062V9.1875H274.688V0.875H282.625ZM245 11.375V24.75H256.25V11.375H245ZM263.188 35.6875C275.312 35.6875 282.75 39.75 282.812 46.75C282.75 53.75 275.312 57.75 263.188 57.75C251.062 57.75 243.625 53.75 243.625 46.75C243.625 39.75 251.062 35.6875 263.188 35.6875ZM263.188 41.75C255.625 41.75 251.562 43.375 251.562 46.75C251.562 50 255.625 51.6875 263.188 51.6875C270.75 51.6875 274.875 50 274.875 46.75C274.875 43.375 270.75 41.75 263.188 41.75ZM264.062 20.5H274.688V15.5H264.062V20.5ZM335.125 0.875V14.875H342.812V21.5625H335.125V35.1875H327.125V0.875H335.125ZM335.125 37.6875V57.125H297.938V37.6875H335.125ZM305.812 43.9375V50.75H327.25V43.9375H305.812ZM323.75 6V12.3125H290V6H302.938V0.5625H310.875V6H323.75ZM306.875 14.0625C315.125 14.0625 320.875 18.25 320.875 24.25C320.875 30.4375 315.125 34.5625 306.875 34.5625C298.5 34.5625 292.75 30.4375 292.75 24.25C292.75 18.25 298.5 14.0625 306.875 14.0625ZM306.875 20.0625C303.062 20.0625 300.5 21.5625 300.562 24.25C300.5 27.125 303.062 28.6875 306.875 28.6875C310.688 28.6875 313.312 27.125 313.312 24.25C313.312 21.5625 310.688 20.0625 306.875 20.0625ZM377.188 5V8.5625C377.188 12.5 377.188 18.1875 375.875 25.25L368.062 24.5C369.062 19.0312 369.312 14.9062 369.375 11.5H347.938V5H377.188ZM363.062 18.125V29C368.719 28.7812 374.531 28.3438 379.875 27.5625L380.312 33.3125C368.5 35.5 355.125 35.6875 345.25 35.75L344.562 29.375C347.75 29.375 351.344 29.375 355.125 29.25V18.125H363.062ZM391.125 0.875V18.1875H398V24.875H391.125V43.4375H382.938V0.875H391.125ZM392.875 50.375V56.75H352.938V39.625H360.938V50.375H392.875ZM448.312 0.875V57.875H440.375V0.875H448.312ZM430.688 5.625V27.5625H411.938V38C420.594 37.9688 427.969 37.4688 436.312 36.125L437 42.5625C427.625 44.1875 419.188 44.5625 408.812 44.5625H403.688V21.25H422.562V12.0625H403.625V5.625H430.688ZM467.938 47.375L462.562 65.1875H455.938L459.062 47.375H467.938ZM46.3125 77.875V134.875H38.25V77.875H46.3125ZM15.4375 81.875C24 81.875 30.375 89.75 30.375 102.125C30.375 114.625 24 122.438 15.4375 122.438C6.6875 122.438 0.3125 114.625 0.375 102.125C0.3125 89.75 6.6875 81.875 15.4375 81.875ZM15.4375 89.0625C11 89.0625 8.0625 93.6875 8.0625 102.125C8.0625 110.625 11 115.188 15.4375 115.188C19.75 115.188 22.6875 110.625 22.6875 102.125C22.6875 93.6875 19.75 89.0625 15.4375 89.0625ZM102.875 77.9375V120.25H95.3125V77.9375H102.875ZM91.5625 79V119H84V99.4375H77.6875V93.0625H84V79H91.5625ZM104.312 127.375V133.75H64.3125V115.562H72.3125V127.375H104.312ZM71.9375 91.1875C71.9375 97.25 74.9375 103.188 82.25 106L78.25 112.25C73.4062 110.344 70.125 106.969 68.1875 102.812C66.0938 107.406 62.5938 111.156 57.375 113.188L53.1875 107.125C61 104 64.1875 97.5625 64.1875 91.125V89.1875H55.125V82.75H80.4375V89.1875H71.9375V91.1875ZM383.938 121.875V128.438H331.875V121.875H353.812V113.312H337.875V94.1875H370.062V87.9375H337.812V81.5625H377.938V100.438H345.875V106.812H379.25V113.312H361.75V121.875H383.938ZM433.812 82V85.5625C433.812 89.5 433.812 95.1875 432.5 102.25L424.688 101.5C425.688 96.0312 425.938 91.9062 426 88.5H404.562V82H433.812ZM419.688 95.125V106C425.344 105.781 431.156 105.344 436.5 104.562L436.938 110.312C425.125 112.5 411.75 112.688 401.875 112.75L401.188 106.375C404.375 106.375 407.969 106.375 411.75 106.25V95.125H419.688ZM447.75 77.875V95.1875H454.625V101.875H447.75V120.438H439.562V77.875H447.75ZM449.5 127.375V133.75H409.562V116.625H417.562V127.375H449.5ZM504.938 77.875V134.875H497V77.875H504.938ZM487.312 82.625V104.562H468.562V115C477.219 114.969 484.594 114.469 492.938 113.125L493.625 119.562C484.25 121.188 475.812 121.562 465.438 121.562H460.312V98.25H479.188V89.0625H460.25V82.625H487.312ZM557.438 77.875V100.125H565.812V106.688H557.438V134.75H549.562V77.875H557.438ZM545.688 86.375V92.75H512.25V86.375H525.125V78.75H533.125V86.375H545.688ZM529.125 95.9375C537.438 95.9375 543.625 101.562 543.625 109.5C543.625 117.438 537.438 123.062 529.125 123.062C520.75 123.062 514.562 117.438 514.562 109.5C514.562 101.562 520.75 95.9375 529.125 95.9375ZM529.125 102.375C525.125 102.438 522.188 105.125 522.188 109.5C522.188 113.938 525.125 116.562 529.125 116.5C533.125 116.562 536 113.938 536 109.5C536 105.125 533.125 102.438 529.125 102.375ZM586.125 92.1875C586.125 101.375 588.688 110.875 596.438 115.875L592.125 122.062C587.219 119.094 584.094 114.219 582.312 108.375C580.25 114.812 576.844 120.188 571.688 123.312L566.812 117.438C575.25 112.188 578.375 102.188 578.375 92.5625V82.75H586.125V92.1875ZM617.188 77.875V134.75H609.562V77.875H617.188ZM605.25 78.6875V132.125H597.812V103.562H590.438V97.0625H597.812V78.6875H605.25ZM675.25 121.562V128.125H623.188V121.562H634.812V107.625C630.406 105 627.75 100.969 627.75 95.9375C627.75 86.75 636.75 80.625 649.125 80.625C661.438 80.625 670.5 86.75 670.562 95.9375C670.531 100.844 667.938 104.844 663.688 107.5V121.562H675.25ZM649.125 86.9375C641 86.9375 635.625 90.1875 635.625 95.9375C635.625 101.5 641 104.938 649.125 104.938C657.188 104.938 662.625 101.5 662.688 95.9375C662.625 90.1875 657.188 86.9375 649.125 86.9375ZM642.688 121.562H655.625V110.5C653.594 110.906 651.406 111.125 649.125 111.125C646.844 111.125 644.688 110.938 642.688 110.5V121.562Z" fill="black"/>
<path d="M142.087 131.816H124.679V81.832H141.639C160.263 81.832 169.799 87.848 169.799 107.24C169.799 126.952 160.839 131.816 142.087 131.816ZM136.839 103.656L135.687 105.384C141.831 107.368 150.279 108.264 156.999 108.264V106.344C150.279 106.344 142.535 105.256 136.839 103.656ZM212.856 131.88H173.304V81.832H212.856V96.872H192.504V99.112H212.856V114.6H192.504V116.84H212.856V131.88ZM257.044 131.88H217.492V81.832H257.044V96.872H236.692V99.112H257.044V114.6H236.692V116.84H257.044V131.88ZM278.895 104.936H266.223C263.343 104.936 261.679 103.784 261.679 100.84V88.232H278.895V104.936ZM278.895 131.816H266.223C263.343 131.816 261.679 130.664 261.679 127.72V115.112H278.895V131.816ZM303.14 81.832C321.444 81.832 328.74 87.144 328.74 102.376C328.74 115.944 320.484 123.048 305.252 122.28V131.88H283.492V81.832H303.14ZM298.66 101.608C302.244 103.912 310.372 105.128 315.172 105.128V103.336C310.372 103.336 302.948 101.928 299.812 100.008L298.66 101.608Z" fill="#1775F9"/>
</svg>
