<svg width="335" height="308" viewBox="0 0 335 308" fill="none" xmlns="http://www.w3.org/2000/svg">
<path d="M310.925 66.2998C313.289 48.571 291.276 21.5348 274.501 24.7267" stroke="#1053B1" stroke-width="10" stroke-linecap="round"/>
<path d="M329.098 64.1895C330.053 30.8726 296.842 5.27295 274.425 5.27295" stroke="#1053B1" stroke-width="10" stroke-linecap="round"/>
<circle cx="150.5" cy="158" r="150" fill="#64A3FB"/>
<path d="M167.563 136.213C169.255 136.567 170.825 137.359 172.115 138.511C173.405 139.663 174.37 141.133 174.913 142.775M168.35 127.55C175.7 129.388 180.425 134.375 183.575 141.463M170.188 118.1C179.113 120.463 187.513 125.188 192.763 139.888M119.788 187.663C121.48 188.017 123.05 188.809 124.34 189.961C125.63 191.113 126.595 192.583 127.138 194.225M120.575 179C127.925 180.838 132.65 185.825 135.8 192.913M122.413 169.55C131.338 171.913 139.738 176.638 144.988 191.338" stroke="white" stroke-width="3" stroke-linecap="round" stroke-linejoin="round"/>
<path d="M150.5 214.438C181.67 214.438 206.938 189.17 206.938 158C206.938 126.83 181.67 101.562 150.5 101.562C119.33 101.562 94.0625 126.83 94.0625 158C94.0625 189.17 119.33 214.438 150.5 214.438Z" stroke="white" stroke-width="3" stroke-linecap="round" stroke-linejoin="round"/>
<path d="M162.312 142.775H147.35V173.225M147.35 158H157.062M116.637 158V127.55L136.587 158V127.55M184.362 178.212C184.39 179.542 184.153 180.865 183.665 182.102C183.177 183.34 182.448 184.467 181.519 185.42C180.591 186.373 179.482 187.132 178.258 187.652C177.033 188.172 175.718 188.443 174.387 188.45C171.742 188.45 169.205 187.399 167.334 185.528C165.463 183.658 164.412 181.12 164.412 178.475V168.237C164.412 165.592 165.463 163.055 167.334 161.184C169.205 159.313 171.742 158.262 174.387 158.262C177.033 158.262 179.57 159.313 181.441 161.184C183.312 163.055 184.362 165.592 184.362 168.237" stroke="white" stroke-width="5" stroke-linecap="round" stroke-linejoin="round"/>
</svg>
