<svg width="828" height="84" viewBox="0 0 828 84" fill="none" xmlns="http://www.w3.org/2000/svg">
<path d="M82.0742 0.320312V35.3203H78.5195V17.0781H74.1836V33.6016H70.668V0.984375H74.1836V14.0312H78.5195V0.320312H82.0742ZM66.7227 4.26562V26.1016H53.1289V4.26562H66.7227ZM56.6445 7.19531V23.1328H63.2461V7.19531H56.6445ZM115.707 0.359375V26.2188H111.996V13.0156H104.34V20.3984H88.207V2.66406H91.918V8.60156H100.668V2.66406H104.34V10.0078H111.996V0.359375H115.707ZM116.488 31.5703V34.5781H92.8555V23.6797H96.6055V31.5703H116.488ZM91.918 17.3906H100.668V11.4531H91.918V17.3906ZM141.449 7.89844C141.449 11.7656 143.949 15.6328 148.402 17.3125L146.645 20.0859C143.344 18.8359 141.039 16.4141 139.809 13.4453C138.559 16.707 136.234 19.4023 132.855 20.8281L131.059 18.1328C135.512 16.2188 137.934 12.0391 137.934 7.89844V7.82031H131.84V4.89062H137.934V0.984375H141.449V4.89062H147.465V7.82031H141.449V7.89844ZM160.707 0.359375V22.1172H157.191V12.4688H153.207V20.8672H149.652V0.984375H153.207V9.46094H157.191V0.359375H160.707ZM148.988 22.5859C156.332 22.5859 160.863 24.9297 160.902 28.9531C160.863 32.9375 156.332 35.2812 148.988 35.2422C141.645 35.2812 137.113 32.9375 137.152 28.9531C137.113 24.9297 141.645 22.5859 148.988 22.5859ZM148.988 25.4766C143.91 25.4766 140.785 26.7266 140.824 28.9531C140.785 31.1406 143.91 32.3906 148.988 32.3906C154.066 32.3906 157.152 31.1406 157.191 28.9531C157.152 26.7266 154.066 25.4766 148.988 25.4766ZM194.535 0.320312V35.3203H190.785V0.320312H194.535ZM184.105 4.07031C184.105 14.3047 179.73 23.2109 167.738 28.9531L165.785 25.9453C175.102 21.5117 179.633 15.2031 180.355 7.03906H167.465V4.07031H184.105ZM229.105 0.320312V35.3203H225.355V0.320312H229.105ZM218.676 4.07031C218.676 14.3047 214.301 23.2109 202.309 28.9531L200.355 25.9453C209.672 21.5117 214.203 15.2031 214.926 7.03906H202.035V4.07031H218.676ZM273.363 0.320312V21.5312H269.652V0.320312H273.363ZM273.363 23.25V34.8906H250.355V23.25H273.363ZM254.027 26.1797V31.8828H269.73V26.1797H254.027ZM266.215 3.875V6.88281H244.809V3.875H253.637V0.046875H257.387V3.875H266.215ZM255.512 8.36719C260.746 8.36719 264.184 10.8281 264.184 14.6172C264.184 18.4453 260.746 20.8672 255.512 20.9062C250.316 20.8672 246.84 18.4453 246.879 14.6172C246.84 10.8281 250.316 8.36719 255.512 8.36719ZM255.512 11.1406C252.387 11.1406 250.395 12.4688 250.434 14.6172C250.395 16.8047 252.387 18.0938 255.512 18.0938C258.637 18.0938 260.629 16.8047 260.668 14.6172C260.629 12.4688 258.637 11.1406 255.512 11.1406ZM310.863 17.8594V20.8281H278.91V17.8594H310.863ZM307.27 11.2969V14.3438H282.895V1.76562H306.918V4.73438H286.605V11.2969H307.27ZM307.504 31.5312V34.5781H282.934V24.2656H286.605V31.5312H307.504ZM352.426 0.320312V20.9844H348.715V15.7891H341.098V18.6406H324.848V2.9375H341.098V5.82812H348.715V0.320312H352.426ZM328.52 5.90625V15.6719H337.465V5.90625H328.52ZM340.707 21.9609C348.051 21.9609 352.543 24.3828 352.543 28.6406C352.543 32.8594 348.051 35.2812 340.707 35.2422C333.363 35.2812 328.832 32.8594 328.871 28.6406C328.832 24.3828 333.363 21.9609 340.707 21.9609ZM340.707 24.8125C335.59 24.8516 332.543 26.1797 332.543 28.6406C332.543 30.9844 335.59 32.3906 340.707 32.3906C345.824 32.3906 348.871 30.9844 348.871 28.6406C348.871 26.1797 345.824 24.8516 340.707 24.8125ZM341.098 12.7812H348.715V8.79688H341.098V12.7812ZM385.316 0.320312V9.38281H390.395V12.5469H385.316V21.4141H381.605V0.320312H385.316ZM385.316 23.25V34.8906H362.973V23.25H385.316ZM366.605 26.1797V31.8828H381.645V26.1797H366.605ZM378.715 3.875V6.84375H357.855V3.875H366.449V0.046875H370.16V3.875H378.715ZM368.285 8.36719C373.324 8.36719 376.762 10.8672 376.762 14.6172C376.762 18.4062 373.324 20.8672 368.285 20.9062C363.168 20.8672 359.77 18.4062 359.77 14.6172C359.77 10.8672 363.168 8.36719 368.285 8.36719ZM368.285 11.2188C365.316 11.1797 363.324 12.5078 363.363 14.6172C363.324 16.8047 365.316 18.0938 368.285 18.0938C371.254 18.0938 373.246 16.8047 373.285 14.6172C373.246 12.5078 371.254 11.1797 368.285 11.2188ZM398.676 29.3047L395.551 40.0859H392.23L394.301 29.3047H398.676ZM431.879 2.97656V4.92969C431.84 7.27344 431.84 10.75 430.98 15.2812L427.309 14.9297C428.07 11.043 428.188 8.23047 428.246 6.02344H414.223V2.97656H431.879ZM422.934 10.8281V18.0547C426.684 17.9375 430.551 17.6641 434.066 17.1562L434.301 19.8516C426.996 21.1406 418.637 21.2578 412.465 21.2969L412.113 18.2891C414.262 18.2695 416.703 18.25 419.262 18.1719V10.8281H422.934ZM440.082 0.320312V11.4531H444.887V14.5781H440.082V26.6094H436.293V0.320312H440.082ZM441.215 31.5703V34.5781H417.426V24.2266H421.137V31.5703H441.215ZM476.02 0.320312V35.3984H472.309V0.320312H476.02ZM465.316 3.48438V16.2578H452.738V23.9141C458.402 23.8945 463.363 23.6406 469.223 22.6641L469.574 25.7109C463.363 26.7656 458.09 27 451.918 27H448.949V13.2891H461.527V6.49219H448.91V3.48438H465.316ZM508.793 0.320312V14.5H514.418V17.5859H508.793V35.3203H505.121V0.320312H508.793ZM502.074 5.78906V8.83594H481.332V5.78906H489.965V0.789062H493.676V5.78906H502.074ZM491.84 11.4141C496.84 11.4141 500.512 14.7734 500.551 19.5391C500.512 24.3438 496.84 27.6641 491.84 27.7031C486.801 27.6641 483.129 24.3438 483.129 19.5391C483.129 14.7734 486.801 11.4141 491.84 11.4141ZM491.84 14.4609C488.871 14.4609 486.645 16.5312 486.684 19.5391C486.645 22.5859 488.871 24.6172 491.84 24.5781C494.809 24.6172 496.996 22.5859 496.996 19.5391C496.996 16.5312 494.809 14.4609 491.84 14.4609ZM545.199 0.320312V35.3203H541.449V0.320312H545.199ZM534.77 4.07031C534.77 14.3047 530.395 23.2109 518.402 28.9531L516.449 25.9453C525.766 21.5117 530.297 15.2031 531.02 7.03906H518.129V4.07031H534.77ZM569.926 2.9375C574.672 2.9375 578.148 6.96094 578.715 13.4453H585.941V0.320312H589.613V35.3984H585.941V16.4531H578.754C578.344 23.2695 574.789 27.5078 569.926 27.5078C564.691 27.5078 561.02 22.7422 561.059 15.2031C561.02 7.70312 564.691 2.9375 569.926 2.9375ZM569.926 6.25781C566.762 6.25781 564.574 9.69531 564.574 15.2031C564.574 20.75 566.762 24.1875 569.926 24.1875C573.09 24.1875 575.277 20.75 575.277 15.2031C575.277 9.69531 573.09 6.25781 569.926 6.25781ZM624.145 0.320312V35.3984H620.473V20.75H613.637V17.6641H620.473V11.1797H613.832V8.13281H620.473V0.320312H624.145ZM611.723 3.40625V16.1797H600.004V24.2266C604.965 24.207 609.105 23.9727 614.105 23.25L614.418 26.2969C608.949 27.1562 604.496 27.3125 598.949 27.3125H596.293V13.25H608.09V6.41406H596.215V3.40625H611.723ZM661.566 17.8594V20.8672H647.699V27.6641H643.949V20.8672H629.535V17.8594H661.566ZM658.012 31.5312V34.5781H633.559V24.3047H637.27V31.5312H658.012ZM645.512 1.14062C653.051 1.14062 657.934 3.875 657.934 8.25C657.934 12.625 653.051 15.3203 645.512 15.3203C638.012 15.3203 633.051 12.625 633.051 8.25C633.051 3.875 638.012 1.14062 645.512 1.14062ZM645.512 4.10938C640.395 4.10938 636.996 5.67188 637.035 8.25C636.996 10.7891 640.395 12.3125 645.512 12.3125C650.668 12.3125 654.027 10.7891 654.027 8.25C654.027 5.67188 650.668 4.10938 645.512 4.10938ZM703.09 0.320312V20.9844H699.379V15.7891H691.762V18.6406H675.512V2.9375H691.762V5.82812H699.379V0.320312H703.09ZM679.184 5.90625V15.6719H688.129V5.90625H679.184ZM691.371 21.9609C698.715 21.9609 703.207 24.3828 703.207 28.6406C703.207 32.8594 698.715 35.2812 691.371 35.2422C684.027 35.2812 679.496 32.8594 679.535 28.6406C679.496 24.3828 684.027 21.9609 691.371 21.9609ZM691.371 24.8125C686.254 24.8516 683.207 26.1797 683.207 28.6406C683.207 30.9844 686.254 32.3906 691.371 32.3906C696.488 32.3906 699.535 30.9844 699.535 28.6406C699.535 26.1797 696.488 24.8516 691.371 24.8125ZM691.762 12.7812H699.379V8.79688H691.762V12.7812ZM735.98 0.320312V9.38281H741.059V12.5469H735.98V21.4141H732.27V0.320312H735.98ZM735.98 23.25V34.8906H713.637V23.25H735.98ZM717.27 26.1797V31.8828H732.309V26.1797H717.27ZM729.379 3.875V6.84375H708.52V3.875H717.113V0.046875H720.824V3.875H729.379ZM718.949 8.36719C723.988 8.36719 727.426 10.8672 727.426 14.6172C727.426 18.4062 723.988 20.8672 718.949 20.9062C713.832 20.8672 710.434 18.4062 710.434 14.6172C710.434 10.8672 713.832 8.36719 718.949 8.36719ZM718.949 11.2188C715.98 11.1797 713.988 12.5078 714.027 14.6172C713.988 16.8047 715.98 18.0938 718.949 18.0938C721.918 18.0938 723.91 16.8047 723.949 14.6172C723.91 12.5078 721.918 11.1797 718.949 11.2188ZM755.316 7.39062C755.316 11.4531 758.676 15.0469 764.066 16.4531L762.348 19.3438C758.246 18.25 755.141 15.8281 753.559 12.6641C751.996 16.1211 748.91 18.7773 744.73 20.0078L742.973 17.1172C748.324 15.5547 751.645 11.6875 751.645 7.39062V7H744.027V4.07031H751.645V0.164062H755.355V4.07031H762.934V7H755.316V7.39062ZM772.191 0.320312V19.6953H768.52V12.5469H761.957V9.5H768.52V0.320312H772.191ZM753.09 21.2188V25.0859H768.52V21.2188H772.191V34.8906H749.418V21.2188H753.09ZM753.09 31.8828H768.52V27.9766H753.09V31.8828ZM28.5586 48.3203V83.3984H24.8477V48.3203H28.5586ZM9.84766 50.9375C15.043 50.9375 18.8711 55.7031 18.8711 63.2031C18.8711 70.7422 15.043 75.5078 9.84766 75.5078C4.57422 75.5078 0.785156 70.7422 0.785156 63.2031C0.785156 55.7031 4.57422 50.9375 9.84766 50.9375ZM9.84766 54.2578C6.60547 54.2578 4.37891 57.6953 4.37891 63.2031C4.37891 68.75 6.60547 72.1875 9.84766 72.1875C13.0508 72.1875 15.2773 68.75 15.2773 63.2031C15.2773 57.6953 13.0508 54.2578 9.84766 54.2578ZM63.9883 48.3594V74.5703H60.4727V48.3594H63.9883ZM57.1133 49.0625V73.7109H53.5977V60.9375H48.7148V57.9297H53.5977V49.0625H57.1133ZM65.0039 79.5703V82.5781H40.7852V71.4453H44.457V79.5703H65.0039ZM44.7305 56.3281C44.7305 60.1562 47.0352 64.1406 51.4883 65.9375L49.6133 68.8672C46.4297 67.5586 44.2422 65.1172 43.0117 62.2266C41.7617 65.4688 39.4375 68.1836 36.0586 69.6094L34.0664 66.7578C38.7148 64.7656 41.1367 60.4688 41.1367 56.3281V54.5703H34.9258V51.5234H50.5898V54.5703H44.7305V56.3281ZM102.895 51.7188V80H98.9492L84.6133 59.3359H84.3789V80H80.082V51.7188H84.0664L98.4023 72.4219H98.6758V51.7188H102.895ZM108.676 80V51.7188H126.215V55.4297H112.973V63.9844H124.965V67.6562H112.973V80H108.676ZM150.16 60.9375C149.457 57.3047 146.449 55.2734 142.855 55.2734C137.973 55.2734 134.34 59.0234 134.34 65.8594C134.34 72.7344 138.012 76.4453 142.855 76.4453C146.41 76.4453 149.418 74.4531 150.16 70.8594L154.496 70.8984C153.598 76.4844 149.027 80.3906 142.816 80.3906C135.434 80.3906 130.082 74.8828 130.082 65.8594C130.082 56.7969 135.473 51.3281 142.816 51.3281C148.793 51.3281 153.52 54.8438 154.496 60.9375H150.16ZM186.723 48.3203V68.9844H183.012V63.7891H175.395V66.6406H159.145V50.9375H175.395V53.8281H183.012V48.3203H186.723ZM162.816 53.9062V63.6719H171.762V53.9062H162.816ZM175.004 69.9609C182.348 69.9609 186.84 72.3828 186.84 76.6406C186.84 80.8594 182.348 83.2812 175.004 83.2422C167.66 83.2812 163.129 80.8594 163.168 76.6406C163.129 72.3828 167.66 69.9609 175.004 69.9609ZM175.004 72.8125C169.887 72.8516 166.84 74.1797 166.84 76.6406C166.84 78.9844 169.887 80.3906 175.004 80.3906C180.121 80.3906 183.168 78.9844 183.168 76.6406C183.168 74.1797 180.121 72.8516 175.004 72.8125ZM175.395 60.7812H183.012V56.7969H175.395V60.7812ZM219.613 48.3203V57.3828H224.691V60.5469H219.613V69.4141H215.902V48.3203H219.613ZM219.613 71.25V82.8906H197.27V71.25H219.613ZM200.902 74.1797V79.8828H215.941V74.1797H200.902ZM213.012 51.875V54.8438H192.152V51.875H200.746V48.0469H204.457V51.875H213.012ZM202.582 56.3672C207.621 56.3672 211.059 58.8672 211.059 62.6172C211.059 66.4062 207.621 68.8672 202.582 68.9062C197.465 68.8672 194.066 66.4062 194.066 62.6172C194.066 58.8672 197.465 56.3672 202.582 56.3672ZM202.582 59.2188C199.613 59.1797 197.621 60.5078 197.66 62.6172C197.621 64.8047 199.613 66.0938 202.582 66.0938C205.551 66.0938 207.543 64.8047 207.582 62.6172C207.543 60.5078 205.551 59.1797 202.582 59.2188ZM382.27 50.4297C389.613 50.4297 395.199 54.2969 395.199 60.1953C395.199 66.0938 389.613 70 382.27 69.9609C374.926 70 369.379 66.0938 369.379 60.1953C369.379 54.2969 374.926 50.4297 382.27 50.4297ZM382.27 53.4375C376.918 53.3984 372.895 56.1328 372.934 60.1953C372.895 64.2969 376.918 66.9141 382.27 66.9141C387.621 66.9141 391.605 64.2969 391.605 60.1953C391.605 56.1328 387.621 53.3984 382.27 53.4375ZM398.363 75.7031V78.7891H366.332V75.7031H398.363ZM432.934 76.0156V79.1406H400.902V76.0156H415.004V69.8828H404.809V58.75H425.355V53.8281H404.73V50.7812H429.027V61.7188H408.48V66.8359H429.848V69.8828H418.676V76.0156H432.934ZM473.559 79.5703V82.5781H449.262V72.5H453.012V79.5703H473.559ZM477.23 66.875V69.9219H445.238V66.875H459.34V61.2891H463.012V66.875H477.23ZM463.051 50.6641C463.051 55.4297 468.402 59.6094 475.121 60.5859L473.676 63.4766C468.148 62.5 463.344 59.668 461.176 55.625C458.969 59.668 454.184 62.5391 448.676 63.4766L447.191 60.5859C453.871 59.5312 459.262 55.3516 459.301 50.6641V49.2578H463.051V50.6641ZM488.988 70.0391V73.5938H505.043V70.0391H508.715V82.8906H485.277V70.0391H488.988ZM488.988 79.8828H505.043V76.4453H488.988V79.8828ZM508.715 48.3594V68.4375H505.004V48.3594H508.715ZM479.848 63.4375C486.449 63.4766 495.16 63.4766 502.777 62.4609L503.012 65.1172C500.004 65.625 496.898 65.957 493.832 66.1328V71.0156H490.16V66.3281C486.625 66.4844 483.266 66.4844 480.316 66.4844L479.848 63.4375ZM493.559 50.8203C493.559 54.2188 496.801 57.1094 501.996 58.2031L500.355 60.9766C496.293 60.0977 493.246 58.0469 491.723 55.2734C490.199 58.2617 487.152 60.5469 482.973 61.5625L481.293 58.6719C486.566 57.5 489.77 54.4141 489.77 50.8203V49.1797H493.559V50.8203ZM544.457 48.3203V83.3203H540.941V48.3203H544.457ZM537.074 49.2188V81.6016H533.559V65.3516H526.723C524.633 69.4141 521.312 72.9688 516.371 75.8594L514.262 73.2031C521.684 68.7891 525.258 62.9102 525.902 55.7031H515.902V52.6562H529.574C529.555 56.0742 529.086 59.3359 528.012 62.3828H533.559V49.2188H537.074ZM578.207 50.9766V52.9297C578.168 55.2734 578.168 58.75 577.309 63.2812L573.637 62.9297C574.398 59.043 574.516 56.2305 574.574 54.0234H560.551V50.9766H578.207ZM569.262 58.8281V66.0547C573.012 65.9375 576.879 65.6641 580.395 65.1562L580.629 67.8516C573.324 69.1406 564.965 69.2578 558.793 69.2969L558.441 66.2891C560.59 66.2695 563.031 66.25 565.59 66.1719V58.8281H569.262ZM586.41 48.3203V59.4531H591.215V62.5781H586.41V74.6094H582.621V48.3203H586.41ZM587.543 79.5703V82.5781H563.754V72.2266H567.465V79.5703H587.543ZM622.348 48.3203V83.3984H618.637V48.3203H622.348ZM611.645 51.4844V64.2578H599.066V71.9141C604.73 71.8945 609.691 71.6406 615.551 70.6641L615.902 73.7109C609.691 74.7656 604.418 75 598.246 75H595.277V61.2891H607.855V54.4922H595.238V51.4844H611.645ZM665.121 48.2031V56.4062H670.238V59.4531H665.121V67.4609H661.41V48.2031H665.121ZM665.121 69.1016V77.2266H646.215V80.1562H666.332V82.9688H642.582V74.6094H661.449V71.875H642.504V69.1016H665.121ZM658.52 51.2891V54.2188H637.66V51.2891H646.254V48.0078H649.965V51.2891H658.52ZM648.09 55.5469C653.207 55.5469 656.566 57.7344 656.566 61.2891C656.566 64.8438 653.207 66.9922 648.09 66.9922C642.934 66.9922 639.574 64.8438 639.574 61.2891C639.574 57.7344 642.934 55.5469 648.09 55.5469ZM648.09 58.2031C645.082 58.2031 643.129 59.4141 643.168 61.2891C643.129 63.1641 645.082 64.2969 648.09 64.2969C651.098 64.2969 653.051 63.1641 653.09 61.2891C653.051 59.4141 651.098 58.2031 648.09 58.2031ZM699.887 51.4062C699.848 56.0547 705.551 60.4297 712.426 61.3281L710.98 64.375C705.258 63.457 700.219 60.4883 697.973 56.3672C695.668 60.5078 690.648 63.457 684.965 64.375L683.48 61.3281C690.355 60.4297 695.98 56.0938 696.02 51.4062V49.4922H699.887V51.4062ZM713.871 67.8125V70.8594H699.652V83.3203H696.02V70.8594H681.957V67.8125H713.871ZM738.441 71.4453C738.441 74.4531 739.926 77.6367 743.09 79.5312C746.312 77.4805 747.895 74.1211 747.895 71.4453V69.7656H751.527V71.4453C751.527 75.0781 753.91 78.5938 758.48 80.0781L756.645 82.8125C753.188 81.6211 750.844 79.2969 749.613 76.4062C748.5 79.2383 746.41 81.7969 743.207 83.125C739.848 81.8555 737.719 79.375 736.645 76.5234C735.375 79.2773 733.07 81.6016 729.77 82.8125L727.895 80.0781C732.387 78.4766 734.809 74.8438 734.848 71.4453V69.7656H738.441V71.4453ZM755.316 48.3594V68.2812H751.605V48.3594H755.316ZM736.332 50.2734C741.684 50.2734 745.629 53.6719 745.629 58.5547C745.629 63.3984 741.684 66.7578 736.332 66.7578C730.98 66.7578 726.996 63.3984 726.996 58.5547C726.996 53.6719 730.98 50.2734 736.332 50.2734ZM736.332 53.4375C733.012 53.3984 730.629 55.4688 730.629 58.5547C730.629 61.6016 733.012 63.6719 736.332 63.6719C739.613 63.6719 741.996 61.6016 741.996 58.5547C741.996 55.4688 739.613 53.3984 736.332 53.4375ZM770.355 50.9375C775.102 50.9375 778.578 54.9609 779.145 61.4453H786.371V48.3203H790.043V83.3984H786.371V64.4531H779.184C778.773 71.2695 775.219 75.5078 770.355 75.5078C765.121 75.5078 761.449 70.7422 761.488 63.2031C761.449 55.7031 765.121 50.9375 770.355 50.9375ZM770.355 54.2578C767.191 54.2578 765.004 57.6953 765.004 63.2031C765.004 68.75 767.191 72.1875 770.355 72.1875C773.52 72.1875 775.707 68.75 775.707 63.2031C775.707 57.6953 773.52 54.2578 770.355 54.2578ZM827.465 75.8594V78.9453H795.434V75.8594H803.09V66.7188C800.219 65.1367 798.48 62.6172 798.48 59.4922C798.48 53.9844 803.871 50.3516 811.371 50.3516C818.91 50.3516 824.301 53.9844 824.301 59.4922C824.301 62.5781 822.621 65.0586 819.809 66.6406V75.8594H827.465ZM811.371 53.3203C805.863 53.3203 802.074 55.7031 802.074 59.4922C802.074 63.2422 805.863 65.7031 811.371 65.7031C816.84 65.7031 820.707 63.2422 820.707 59.4922C820.707 55.7031 816.84 53.3203 811.371 53.3203ZM806.762 75.8594H816.059V68.0469C814.633 68.418 813.051 68.5938 811.371 68.5938C809.73 68.5938 808.168 68.418 806.762 68.0859V75.8594Z" fill="black"/>
<path d="M247.48 81.76H236.6V50.52H247.2C258.84 50.52 264.8 54.28 264.8 66.4C264.8 78.72 259.2 81.76 247.48 81.76ZM244.2 64.16L243.48 65.24C247.32 66.48 252.6 67.04 256.8 67.04V65.84C252.6 65.84 247.76 65.16 244.2 64.16ZM291.711 81.8H266.991V50.52H291.711V59.92H278.991V61.32H291.711V71H278.991V72.4H291.711V81.8ZM319.328 81.8H294.608V50.52H319.328V59.92H306.608V61.32H319.328V71H306.608V72.4H319.328V81.8ZM332.985 64.96H325.065C323.265 64.96 322.225 64.24 322.225 62.4V54.52H332.985V64.96ZM332.985 81.76H325.065C323.265 81.76 322.225 81.04 322.225 79.2V71.32H332.985V81.76ZM348.138 50.52C359.578 50.52 364.138 53.84 364.138 63.36C364.138 71.84 358.978 76.28 349.458 75.8V81.8H335.858V50.52H348.138ZM345.338 62.88C347.578 64.32 352.658 65.08 355.658 65.08V63.96C352.658 63.96 348.018 63.08 346.058 61.88L345.338 62.88Z" fill="#1775F9"/>
</svg>
