<svg width="163" height="117" viewBox="0 0 163 117" fill="none" xmlns="http://www.w3.org/2000/svg">
<g filter="url(#filter0_d_160_4994)">
<path d="M16 25.4659C20.1868 25.1553 22.9182 25 24.1943 25C25.4772 25 26.4877 25.1208 27.2258 25.3624C27.9707 25.597 28.6363 25.9249 29.2226 26.3459C30.3607 27.1535 31.2194 28.2267 31.7988 29.5658C32.3851 30.9048 32.6783 32.261 32.6783 33.6346C32.6783 35.0081 32.4541 36.2091 32.0057 37.2375C31.5643 38.259 30.9504 39.1218 30.1641 39.8258C28.557 41.2821 26.4774 42.0069 23.9253 42H16V25.4659ZM22.4354 30.715V37.0201C22.801 36.7095 23.1976 36.4023 23.6252 36.0986C25.2668 34.9184 26.0877 33.6829 26.0877 32.3922C26.0877 31.7641 25.9014 31.1843 25.529 30.6528C25.1565 30.1145 24.6702 29.8453 24.0701 29.8453C23.4769 29.8453 22.932 30.1352 22.4354 30.715Z" fill="url(#paint0_linear_160_4994)"/>
<path d="M34.7268 25.4659H46.6354V30.2284H41.1622V31.5846H46.6147V35.6431H41.1622V37.2064H46.9976V42H34.7268V25.4659Z" fill="url(#paint1_linear_160_4994)"/>
<path d="M49.46 25.4659H61.3686V30.2284H55.8954V31.5846H61.3479V35.6431H55.8954V37.2064H61.7307V42H49.46V25.4659Z" fill="url(#paint2_linear_160_4994)"/>
<path d="M66.8107 28.6443C67.6798 28.6443 68.3455 28.8997 68.8076 29.4105C69.2697 29.9212 69.5008 30.5459 69.5008 31.2844C69.5008 32.0229 69.2249 32.6924 68.6731 33.2929C68.1213 33.8865 67.3798 34.1833 66.4486 34.1833C65.5175 34.1764 64.8381 33.9314 64.4104 33.4482C63.9828 32.9582 63.7689 32.3473 63.7689 31.6157C63.7689 30.8772 64.0586 30.1973 64.638 29.5761C65.2174 28.9549 65.9417 28.6443 66.8107 28.6443ZM66.8004 36.461C67.6626 36.461 68.3282 36.7164 68.7972 37.2271C69.2663 37.731 69.5008 38.3522 69.5008 39.0907C69.5008 39.8292 69.2249 40.4987 68.6731 41.0992C68.1282 41.6997 67.3901 42 66.459 42C65.5278 42 64.845 41.7515 64.4104 41.2545C63.9828 40.7576 63.7689 40.1433 63.7689 39.4117C63.7689 38.68 64.0586 38.0036 64.638 37.3824C65.2174 36.7612 65.9382 36.4541 66.8004 36.461Z" fill="url(#paint3_linear_160_4994)"/>
<path d="M71.6218 25.5073C75.043 25.1691 77.6295 25 79.3815 25C81.1335 25 82.5199 25.1277 83.5407 25.3831C84.5685 25.6384 85.4134 26.0353 86.0756 26.5737C87.3585 27.6228 88 29.3449 88 31.7399C88 32.8167 87.7965 33.8037 87.3896 34.7009C86.9826 35.5982 86.4274 36.3678 85.7238 37.0097C85.0203 37.6516 84.196 38.152 83.251 38.5109C82.3061 38.8698 81.2956 39.0493 80.2196 39.0493L78.3779 39.0079V42H71.6218V25.5073ZM80.9438 29.2966C80.3506 29.2966 79.4815 29.7073 78.3365 30.5286V34.4318L79.5471 33.8416C80.3472 33.4482 80.9059 33.072 81.2232 32.7131C81.8164 32.0436 82.1129 31.3776 82.1129 30.715C82.1129 30.0524 81.8888 29.6141 81.4404 29.4001C81.2956 29.3311 81.1301 29.2966 80.9438 29.2966Z" fill="url(#paint4_linear_160_4994)"/>
</g>
<defs>
<filter id="filter0_d_160_4994" x="-9" y="0" width="172" height="117" filterUnits="userSpaceOnUse" color-interpolation-filters="sRGB">
<feFlood flood-opacity="0" result="BackgroundImageFix"/>
<feColorMatrix in="SourceAlpha" type="matrix" values="0 0 0 0 0 0 0 0 0 0 0 0 0 0 0 0 0 0 127 0" result="hardAlpha"/>
<feOffset dx="25" dy="25"/>
<feGaussianBlur stdDeviation="25"/>
<feComposite in2="hardAlpha" operator="out"/>
<feColorMatrix type="matrix" values="0 0 0 0 0 0 0 0 0 0 0 0 0 0 0 0 0 0 0.1 0"/>
<feBlend mode="normal" in2="BackgroundImageFix" result="effect1_dropShadow_160_4994"/>
<feBlend mode="normal" in="SourceGraphic" in2="effect1_dropShadow_160_4994" result="shape"/>
</filter>
<linearGradient id="paint0_linear_160_4994" x1="14.7274" y1="34.6848" x2="88.4872" y2="34.6848" gradientUnits="userSpaceOnUse">
<stop stop-color="#1775F9"/>
<stop offset="1" stop-color="#4591FA"/>
</linearGradient>
<linearGradient id="paint1_linear_160_4994" x1="14.7274" y1="34.6848" x2="88.4872" y2="34.6848" gradientUnits="userSpaceOnUse">
<stop stop-color="#1775F9"/>
<stop offset="1" stop-color="#4591FA"/>
</linearGradient>
<linearGradient id="paint2_linear_160_4994" x1="14.7274" y1="34.6848" x2="88.4872" y2="34.6848" gradientUnits="userSpaceOnUse">
<stop stop-color="#1775F9"/>
<stop offset="1" stop-color="#4591FA"/>
</linearGradient>
<linearGradient id="paint3_linear_160_4994" x1="14.7274" y1="34.6848" x2="88.4872" y2="34.6848" gradientUnits="userSpaceOnUse">
<stop stop-color="#1775F9"/>
<stop offset="1" stop-color="#4591FA"/>
</linearGradient>
<linearGradient id="paint4_linear_160_4994" x1="14.7274" y1="34.6848" x2="88.4872" y2="34.6848" gradientUnits="userSpaceOnUse">
<stop stop-color="#1775F9"/>
<stop offset="1" stop-color="#4591FA"/>
</linearGradient>
</defs>
</svg>
